<svg xmlns="http://www.w3.org/2000/svg" width="76" height="58.467" viewBox="0 0 76 58.467">
  <g id="Grupo_3396" data-name="Grupo 3396" transform="translate(-644.999 -3739)">
    <path id="Trazado_107" data-name="Trazado 107" d="M64.31,90.661c-19.043,0-31.765-10-31.765-22.8s12.722-22.8,31.749-22.8c19.077,0,31.749,10.006,31.749,22.8s-12.729,22.8-31.749,22.8M98.363,59.616c-1.184-3.615-.484-6.248-2.531-8.849-2.373-2.273-5.143-1.824-8.147-3.6-2.875-1.991-3.551-4.612-6.406-5.7-3.231-.983-5.224.646-8.892.185-4.024-.784-4.578-2.9-8.068-3.026h-.025c-3.492.129-4.053,2.242-8.068,3.026-3.67.452-5.663-1.168-8.892-.185-2.855,1.085-3.531,3.706-6.408,5.7-3.008,1.776-5.776,1.326-8.156,3.6-2.047,2.6-1.351,5.227-2.531,8.849-1.423,3.5-3.929,4.727-3.929,8.227s2.506,4.766,3.936,8.264c1.187,3.615.484,6.248,2.531,8.851,2.373,2.275,5.141,1.824,8.149,3.6,2.878,1.991,3.553,4.616,6.406,5.7,3.229.987,5.222-.646,8.892-.185,4.024.786,4.575,2.9,8.068,3.03h.027c3.49-.131,4.053-2.244,8.068-3.03,3.668-.452,5.661,1.173,8.892.185,2.855-1.082,3.531-3.706,6.406-5.7,3-1.774,5.773-1.322,8.147-3.6,2.047-2.6,1.351-5.227,2.531-8.851,1.432-3.507,3.947-4.8,3.947-8.264,0-3.521-2.515-4.718-3.947-8.227" transform="translate(618.689 3700.37)" fill="#fff"/>
    <path id="Trazado_108" data-name="Trazado 108" d="M110.9,131.259h-1.329a.321.321,0,0,0-.334.3c-.417,2.655-1.388,4.513-4.655,4.513-4.516,0-5.04-6.088-5.04-10.647,0-2.989.944-9.063,4.864-9.063,3.111,0,4.1,1.683,4.6,4.467.05.23.156.308.341.308h1.324a.312.312,0,0,0,.337-.338v-5.925a.317.317,0,0,0-.337-.345h-1.352c-.172,0-.229.069-.33.269-.16.347-.3.609-.761.609a2.621,2.621,0,0,1-1.077-.391,8.845,8.845,0,0,0-3.606-.646c-6.012,0-10.433,4.582-10.433,11.882,0,6.164,3.693,11.79,10.472,11.79,3,0,4.332-.786,5.086-.786a.575.575,0,0,1,.538.386.309.309,0,0,0,.321.216h1.354a.317.317,0,0,0,.341-.34V131.6a.321.321,0,0,0-.341-.343" transform="translate(566.844 3641.549)" fill="#fff"/>
    <path id="Trazado_109" data-name="Trazado 109" d="M171.923,143.12a1.845,1.845,0,0,1-1.94-2.048,2.639,2.639,0,0,1,1.18-2.14l2.426,3.352a2.221,2.221,0,0,1-1.666.837m1.127-9.107c.625,0,.916.577.916,1.15a2.058,2.058,0,0,1-1.246,1.911,3.137,3.137,0,0,1-.722-1.892,1.077,1.077,0,0,1,1.058-1.175m6.264,3.837h-2.632c-.229,0-.284.115-.3.182a7.638,7.638,0,0,1-1.212,2.529l-1.643-2.455c1.2-.522,2.506-1.338,2.506-2.653,0-1.5-1.242-2.455-2.951-2.455s-3.368.938-3.368,2.858a3.239,3.239,0,0,0,.768,2c-1.32.4-2.935,1.609-2.9,3.338.039,1.986,1.8,3.157,3.989,3.157a4.827,4.827,0,0,0,3.013-.945,3.008,3.008,0,0,0,2.121.713h1.052a.291.291,0,0,0,.316-.209l.323-.777c.119-.294-.14-.262-.229-.262H177.7a1.941,1.941,0,0,1-1.6-.883A8.368,8.368,0,0,0,177.3,140.5c.268-.382.646-1,.646-1,.172-.262.284-.432.57-.432h.392a.325.325,0,0,0,.314-.214l.312-.715c.126-.313-.057-.294-.2-.294" transform="translate(509.121 3627.246)" fill="#fff"/>
    <path id="Trazado_110" data-name="Trazado 110" d="M207.175,130.008l3.633-9.068,2.738,9.068Zm16.126,6.408h-.408a1.345,1.345,0,0,1-1.567-1.12s-6.209-17.763-6.965-19.933a.419.419,0,0,0-.431-.3h-2.674a.431.431,0,0,0-.442.3l-8.341,20.025a1.415,1.415,0,0,1-.719.855,2.782,2.782,0,0,1-1.09.168h-.229a.317.317,0,0,0-.339.34v1.3a.314.314,0,0,0,.339.34h6.511a.317.317,0,0,0,.341-.343v-1.292a.317.317,0,0,0-.341-.338h-.722c-.593,0-1.219-.041-1.219-.7a2.2,2.2,0,0,1,.19-.779l1.271-3.134h7.581c.353.986.916,2.793.916,2.793s.2.612.266.869a1.384,1.384,0,0,1,.044.343c0,.287-.163.589-.786.6l-.793.018a.321.321,0,0,0-.341.34v1.3a.321.321,0,0,0,.341.338h9.592a.319.319,0,0,0,.341-.343v-1.294a.319.319,0,0,0-.339-.34" transform="translate(483.738 3641.014)" fill="#fff"/>
  </g>
</svg>
