<svg id="Componente_65" data-name="Componente 65" xmlns="http://www.w3.org/2000/svg" width="76" height="58" viewBox="0 0 76 58">
  <path id="Trazado_107" data-name="Trazado 107" d="M64.31,90.246c-19.043,0-31.765-9.924-31.765-22.616S45.267,45.01,64.294,45.01c19.077,0,31.749,9.926,31.749,22.62S83.315,90.246,64.294,90.246m34.069-30.8c-1.184-3.587-.484-6.2-2.531-8.778-2.373-2.255-5.143-1.809-8.147-3.571-2.875-1.975-3.551-4.575-6.406-5.651-3.231-.975-5.224.641-8.892.184-4.024-.778-4.578-2.874-8.068-3h-.025c-3.492.128-4.053,2.224-8.068,3-3.67.448-5.663-1.159-8.892-.184-2.855,1.076-3.531,3.676-6.408,5.651-3.008,1.762-5.776,1.316-8.156,3.571-2.047,2.58-1.351,5.185-2.531,8.778-1.423,3.475-3.929,4.689-3.929,8.162s2.506,4.728,3.936,8.2c1.187,3.587.484,6.2,2.531,8.78,2.373,2.257,5.141,1.809,8.149,3.569,2.878,1.975,3.553,4.58,6.406,5.651,3.229.98,5.222-.641,8.892-.184,4.024.78,4.575,2.876,8.068,3.006h.027c3.49-.13,4.053-2.226,8.068-3.006,3.668-.448,5.661,1.163,8.892.184,2.855-1.074,3.531-3.676,6.406-5.651,3-1.76,5.773-1.311,8.147-3.569,2.047-2.582,1.351-5.185,2.531-8.78,1.432-3.479,3.947-4.761,3.947-8.2,0-3.492-2.515-4.681-3.947-8.162" transform="translate(-26.31 -38.63)" fill="#0043ba"/>
  <path id="Trazado_108" data-name="Trazado 108" d="M110.9,131.124h-1.329a.32.32,0,0,0-.334.3c-.417,2.634-1.388,4.477-4.655,4.477-4.516,0-5.04-6.039-5.04-10.562,0-2.965.944-8.991,4.864-8.991,3.111,0,4.1,1.67,4.6,4.432.05.228.156.306.341.306h1.324a.311.311,0,0,0,.337-.335v-5.878a.314.314,0,0,0-.089-.248.317.317,0,0,0-.248-.094h-1.352c-.172,0-.229.068-.33.267-.16.344-.3.6-.761.6a2.635,2.635,0,0,1-1.077-.388,8.907,8.907,0,0,0-3.606-.641c-6.012,0-10.433,4.546-10.433,11.787,0,6.115,3.693,11.7,10.472,11.7,3,0,4.332-.78,5.086-.78a.575.575,0,0,1,.538.383.309.309,0,0,0,.321.214h1.354a.317.317,0,0,0,.249-.09.314.314,0,0,0,.092-.247v-5.868a.318.318,0,0,0-.093-.247.322.322,0,0,0-.248-.093" transform="translate(-78.157 -97.586)" fill="#0043ba"/>
  <path id="Trazado_109" data-name="Trazado 109" d="M171.923,143.039a1.837,1.837,0,0,1-1.94-2.032,2.613,2.613,0,0,1,1.18-2.123l2.426,3.325a2.227,2.227,0,0,1-1.666.83M173.05,134c.625,0,.916.572.916,1.14a2.041,2.041,0,0,1-1.246,1.9,3.1,3.1,0,0,1-.722-1.877A1.071,1.071,0,0,1,173.057,134m6.264,3.807h-2.632c-.229,0-.284.114-.3.18a7.552,7.552,0,0,1-1.212,2.509l-1.643-2.436c1.2-.518,2.506-1.327,2.506-2.632,0-1.492-1.242-2.436-2.951-2.436s-3.368.931-3.368,2.835a3.2,3.2,0,0,0,.767,1.982c-1.32.4-2.935,1.6-2.9,3.312.039,1.971,1.8,3.132,3.989,3.132a4.853,4.853,0,0,0,3.013-.937,3.025,3.025,0,0,0,2.121.707h1.052a.291.291,0,0,0,.316-.208l.323-.771c.119-.292-.14-.26-.229-.26H177.7a1.945,1.945,0,0,1-1.6-.876,8.314,8.314,0,0,0,1.205-1.464c.268-.379.646-1,.646-1,.172-.26.284-.429.57-.429h.392a.325.325,0,0,0,.314-.212l.312-.709c.126-.31-.057-.292-.2-.292" transform="translate(-135.878 -111.924)" fill="#0043ba"/>
  <path id="Trazado_110" data-name="Trazado 110" d="M207.175,129.888l3.634-9,2.738,9Zm16.126,6.356h-.408a1.343,1.343,0,0,1-1.567-1.111s-6.209-17.621-6.965-19.774a.419.419,0,0,0-.431-.294h-2.674a.431.431,0,0,0-.442.294l-8.341,19.865a1.407,1.407,0,0,1-.719.848,2.8,2.8,0,0,1-1.09.166h-.229a.317.317,0,0,0-.247.091.314.314,0,0,0-.092.246v1.286a.313.313,0,0,0,.339.338h6.511a.315.315,0,0,0,.341-.34V136.58a.316.316,0,0,0-.341-.335h-.722c-.593,0-1.219-.041-1.219-.7a2.166,2.166,0,0,1,.19-.773l1.271-3.109h7.581c.353.978.916,2.771.916,2.771s.2.607.266.862a1.36,1.36,0,0,1,.044.34c0,.285-.163.584-.786.593l-.793.018a.32.32,0,0,0-.341.338v1.289a.32.32,0,0,0,.341.335h9.592a.318.318,0,0,0,.341-.34v-1.284a.318.318,0,0,0-.339-.338" transform="translate(-161.262 -98.123)" fill="#0043ba"/>
</svg>
