<svg xmlns="http://www.w3.org/2000/svg" width="20.409" height="16" viewBox="0 0 20.409 16">
  <path id="delivery-truck" d="M22.6,14.483l-2.187-5.1a.729.729,0,0,0-.671-.444H17.557V7.479a.729.729,0,0,0-.729-.729H2.979a.729.729,0,0,0-.729.729V19.87a.729.729,0,0,0,.729.729h1.56a2.916,2.916,0,0,0,5.627,0h4.577a2.916,2.916,0,0,0,5.627,0h1.56a.729.729,0,0,0,.729-.729v-5.1A.729.729,0,0,0,22.6,14.483Zm-5.044-4.089h1.705l1.56,3.644H17.557ZM7.352,21.328A1.458,1.458,0,1,1,8.81,19.87,1.458,1.458,0,0,1,7.352,21.328Zm7.391-2.187H10.166a2.916,2.916,0,0,0-5.627,0H3.708V8.208H16.1v9.155a2.916,2.916,0,0,0-1.356,1.779Zm2.813,2.187a1.458,1.458,0,1,1,1.458-1.458A1.458,1.458,0,0,1,17.557,21.328ZM21.2,19.141h-.831a2.916,2.916,0,0,0-2.814-2.187V15.5H21.2Z" transform="translate(-2.25 -6.75)" fill="#212121"/>
</svg>
