<svg id="Componente_66_5" data-name="Componente 66 – 5" xmlns="http://www.w3.org/2000/svg" width="24" height="24" viewBox="0 0 24 24">
  <rect id="Rectángulo_2457" data-name="Rectángulo 2457" width="24" height="24" fill="#0043ba" opacity="0"/>
  <path id="Trazado_7798" data-name="Trazado 7798" d="M237.365,235.486a.568.568,0,0,0,.508-.419l2.213-8.16a.568.568,0,0,0-.537-.717l-16.83-.363-.441-2.071-3.426-1.109a.569.569,0,1,0-.351,1.082l2.8.906,2.423,11.377a2.69,2.69,0,0,0,.143,2.145,2.835,2.835,0,0,0,1.572,1.237,2.166,2.166,0,0,0,.837,4.156h.026a2.162,2.162,0,0,0,1.248-3.939c.264-.027.508-.066.724-.1a3.988,3.988,0,0,1,1.033-.1,2.8,2.8,0,0,1,1.029.432,4.765,4.765,0,0,0,2.448.8l.09,0,.078,0a4.793,4.793,0,0,0,2.466-.8,2.786,2.786,0,0,1,.91-.412,2.314,2.314,0,0,1,.352-.017,2.163,2.163,0,0,0,.689,4.207h.026a2.163,2.163,0,0,0,1.178-3.984c.146,0,.3,0,.456-.005a.568.568,0,0,0,.537-.6.561.561,0,0,0-.6-.536,5.625,5.625,0,0,1-1.313-.111,4.579,4.579,0,0,0-1.511-.077,3.847,3.847,0,0,0-1.31.558,3.709,3.709,0,0,1-1.933.64h-.058a3.7,3.7,0,0,1-1.925-.642,3.919,3.919,0,0,0-1.433-.575,4.724,4.724,0,0,0-1.407.1,4.422,4.422,0,0,1-2.2-.05,1.762,1.762,0,0,1-1.016-.74,1.6,1.6,0,0,1-.05-1.213Zm.751,6.7a1.144,1.144,0,0,1-.734.294,1.032,1.032,0,0,1,.011-2.063h.012a1.031,1.031,0,0,1,.71,1.769Zm-11.093-.069a1.08,1.08,0,0,1-.734.295,1.032,1.032,0,0,1,.011-2.064h.012a1.031,1.031,0,0,1,.711,1.769Zm-3.1-10.659,2.867.044.483,3.566-2.542.182Zm6.447-4.331-.023,3.293-2.56-.039-.449-3.319Zm-2.429,4.393,2.4.036-.023,3.293-1.9.137Zm3.536.054,2.6.04-.473,3-2.149.154Zm2.779-1.095-2.771-.042.023-3.286,3.261.07Zm2.628,3.9-2.113.151.457-2.9,2.391.036Zm1.042-3.842L235.4,230.5l.513-3.251,2.882.062Zm-11.741-3.5.451,3.326-2.955-.045-.714-3.35Z" transform="translate(-217.107 -221.094)" fill="#0043ba"/>
</svg>
