<svg id="check-circle" xmlns="http://www.w3.org/2000/svg" width="24" height="24" viewBox="0 0 24 24">
  <path id="Trazado_6653" data-name="Trazado 6653" d="M12,22.5A10.5,10.5,0,1,0,1.5,12,10.5,10.5,0,0,0,12,22.5ZM12,24A12,12,0,1,0,0,12,12,12,0,0,0,12,24Z" fill="#00ad29" fill-rule="evenodd"/>
  <path id="Trazado_6654" data-name="Trazado 6654" d="M19.516,11.013a1.125,1.125,0,1,1,1.607,1.576l-5.988,7.485a1.125,1.125,0,0,1-1.62.03L9.547,16.135a1.125,1.125,0,1,1,1.59-1.59l3.141,3.139,5.209-6.637a.354.354,0,0,1,.03-.033Z" transform="translate(-3.061 -3.559)" fill="#00ad29" fill-rule="evenodd"/>
</svg>
