<svg id="x" xmlns="http://www.w3.org/2000/svg" width="21" height="21" viewBox="0 0 21 21">
  <g id="Grupo_1240" data-name="Grupo 1240" transform="translate(0 0)">
    <rect id="Rectángulo_1170" data-name="Rectángulo 1170" width="21" height="21" transform="translate(0 0)" fill="none"/>
    <path id="Trazado_6650" data-name="Trazado 6650" d="M24.673,9.292a1,1,0,0,1,0,1.413L10.7,24.673a1,1,0,0,1-1.413-1.413L23.26,9.292a1,1,0,0,1,1.413,0Z" transform="translate(-6.339 -6.339)" fill="#909090" fill-rule="evenodd"/>
    <path id="Trazado_6651" data-name="Trazado 6651" d="M9.292,9.292a1,1,0,0,0,0,1.413L23.261,24.673a1,1,0,0,0,1.413-1.413L10.7,9.292a1,1,0,0,0-1.413,0Z" transform="translate(-6.339 -6.339)" fill="#909090" fill-rule="evenodd"/>
  </g>
</svg>
