<svg xmlns="http://www.w3.org/2000/svg" width="27.597" height="21.059" viewBox="0 0 27.597 21.059">
  <path id="Trazado_7827" data-name="Trazado 7827" d="M52.473,46.189c-.43-1.3-.176-2.251-.919-3.187-.862-.819-1.867-.657-2.958-1.3-1.044-.717-1.289-1.661-2.326-2.052-1.173-.354-1.9.233-3.229.067-1.461-.282-1.662-1.044-2.93-1.09H40.1c-1.268.046-1.472.807-2.93,1.09-1.333.163-2.056-.421-3.229-.067-1.037.391-1.282,1.335-2.327,2.052-1.092.64-2.1.478-2.961,1.3-.743.937-.491,1.883-.919,3.187-.517,1.262-1.427,1.7-1.427,2.964s.91,1.717,1.429,2.977c.431,1.3.176,2.251.919,3.188.862.82,1.867.657,2.959,1.3,1.045.717,1.29,1.663,2.326,2.052,1.172.356,1.9-.233,3.229-.067,1.461.283,1.661,1.044,2.93,1.092h.01c1.267-.047,1.472-.808,2.93-1.092,1.332-.163,2.056.422,3.229.067,1.037-.39,1.282-1.335,2.326-2.052,1.091-.639,2.1-.476,2.958-1.3.743-.938.491-1.883.919-3.188.52-1.263,1.433-1.729,1.433-2.977,0-1.268-.913-1.7-1.433-2.964" transform="translate(-26.31 -38.631)" fill="#06760f"/>
</svg>
