<svg id="Componente_67_6" data-name="Componente 67 – 6" xmlns="http://www.w3.org/2000/svg" width="24" height="24" viewBox="0 0 24 24">
  <rect id="Rectángulo_2459" data-name="Rectángulo 2459" width="24" height="24" fill="#fff" opacity="0"/>
  <path id="heart" d="M11,3.779l-.986-1.013C7.7.386,3.457,1.207,1.925,4.2c-.719,1.407-.881,3.438.432,6.03,1.265,2.5,3.9,5.485,8.644,8.741,4.747-3.256,7.377-6.245,8.644-8.741C20.957,7.634,20.8,5.6,20.076,4.2,18.544,1.207,14.3.385,11.986,2.764Zm0,16.847C-10.083,6.694,4.509-4.18,10.758,1.572c.083.076.164.154.242.235q.116-.122.242-.234C17.49-4.183,32.084,6.692,11,20.626Z" transform="translate(1 1.688)" fill="#212121"/>
</svg>
