<svg xmlns="http://www.w3.org/2000/svg" width="24" height="24" viewBox="0 0 24 24">
  <g id="Grupo_1343" data-name="Grupo 1343" transform="translate(-341 -417)">
    <rect id="Rectángulo_1236" data-name="Rectángulo 1236" width="24" height="24" transform="translate(341 417)" fill="none"/>
    <g id="filter" transform="translate(336.5 413)">
      <path id="Trazado_323" data-name="Trazado 323" d="M12.5,22a1,1,0,0,1,1-1h6a1,1,0,0,1,0,2h-6A1,1,0,0,1,12.5,22Zm-4-6a1,1,0,0,1,1-1h14a1,1,0,0,1,0,2H9.5A1,1,0,0,1,8.5,16Zm-4-6a1,1,0,0,1,1-1h22a1,1,0,1,1,0,2H5.5A1,1,0,0,1,4.5,10Z" fill-rule="evenodd"/>
    </g>
  </g>
</svg>
