<svg xmlns="http://www.w3.org/2000/svg" width="24" height="24" viewBox="0 0 24 24">
  <g id="Grupo_3335" data-name="Grupo 3335" transform="translate(-1130 -6)">
    <g id="Grupo_3328" data-name="Grupo 3328" transform="translate(1131 8)">
      <g id="Grupo_3323" data-name="Grupo 3323" transform="translate(4.057 5.825)">
        <line id="Línea_150" data-name="Línea 150" x2="11.267" fill="none" stroke="#f5f5f5" stroke-linecap="round" stroke-linejoin="round" stroke-width="1"/>
        <line id="Línea_151" data-name="Línea 151" x2="6.65" transform="translate(0 3.357)" fill="none" stroke="#f5f5f5" stroke-linecap="round" stroke-linejoin="round" stroke-width="1"/>
      </g>
      <path id="Trazado_7794" data-name="Trazado 7794" d="M234.174,460.68c-5.352,0-9.691,3.359-9.691,7.5a6.866,6.866,0,0,0,3.162,5.544h0v4.243l2.846-2.846a12.142,12.142,0,0,0,3.684.562c5.351,0,9.69-3.359,9.69-7.5S239.525,460.68,234.174,460.68Z" transform="translate(-224.483 -460.68)" fill="none" stroke="#f5f5f5" stroke-linecap="round" stroke-linejoin="round" stroke-width="1"/>
      <g id="Grupo_3324" data-name="Grupo 3324" transform="translate(6.966 9.181)">
        <path id="Trazado_7795" data-name="Trazado 7795" d="M244.678,469.861a5.125,5.125,0,0,1,1.2,3.24,5.59,5.59,0,0,1-2.573,4.513h0v3.454l-2.317-2.317a9.866,9.866,0,0,1-3,.458,8.685,8.685,0,0,1-6.541-2.693" transform="translate(-231.449 -469.861)" fill="none" stroke="#f5f5f5" stroke-linecap="round" stroke-linejoin="round" stroke-width="1"/>
      </g>
    </g>
    <rect id="Rectángulo_2461" data-name="Rectángulo 2461" width="24" height="24" transform="translate(1130 6)" fill="#fff" opacity="0"/>
  </g>
</svg>
