<svg xmlns="http://www.w3.org/2000/svg" width="35.858" height="35.857" viewBox="0 0 35.858 35.857">
  <g id="Grupo_3363" data-name="Grupo 3363" transform="translate(-554.143 -4103.142)">
    <path id="Trazado_7774" data-name="Trazado 7774" d="M17.929.056A17.929,17.929,0,1,0,35.858,17.985,17.929,17.929,0,0,0,17.929.056Zm9.3,21.787a6.827,6.827,0,0,1-.435,2.269,4.785,4.785,0,0,1-2.737,2.737,6.8,6.8,0,0,1-2.271.433c-1,.048-1.315.057-3.856.057s-2.86-.009-3.858-.057a6.811,6.811,0,0,1-2.271-.433,4.789,4.789,0,0,1-2.736-2.737,6.827,6.827,0,0,1-.435-2.269c-.046-1-.057-1.316-.057-3.858s.01-2.86.057-3.856a6.837,6.837,0,0,1,.435-2.271A4.777,4.777,0,0,1,11.8,9.121a6.884,6.884,0,0,1,2.271-.435c1-.046,1.316-.057,3.858-.057s2.86.012,3.856.057a6.914,6.914,0,0,1,2.271.435,4.786,4.786,0,0,1,2.737,2.737,6.837,6.837,0,0,1,.435,2.271c.045,1,.057,1.316.057,3.856S27.273,20.846,27.228,21.843Z" transform="translate(554.143 4103.086)"/>
    <path id="Trazado_7775" data-name="Trazado 7775" d="M13.1,9.969a3.189,3.189,0,1,0,3.189,3.188A3.189,3.189,0,0,0,13.1,9.969Z" transform="translate(558.971 4107.914)"/>
    <path id="Trazado_7776" data-name="Trazado 7776" d="M21.7,9.057A3.08,3.08,0,0,0,19.938,7.3a5.142,5.142,0,0,0-1.722-.32c-.979-.043-1.272-.053-3.748-.053s-2.769.009-3.748.053A5.133,5.133,0,0,0,9,7.3,3.08,3.08,0,0,0,7.238,9.057a5.172,5.172,0,0,0-.32,1.722c-.044.977-.053,1.272-.053,3.746s.009,2.769.053,3.748a5.172,5.172,0,0,0,.32,1.722A3.069,3.069,0,0,0,9,21.755a5.211,5.211,0,0,0,1.722.32c.977.043,1.272.053,3.748.053s2.769-.01,3.748-.053a5.211,5.211,0,0,0,1.722-.32A2.914,2.914,0,0,0,21,21.062a2.955,2.955,0,0,0,.694-1.068,5.191,5.191,0,0,0,.318-1.722c.044-.979.055-1.272.055-3.748s-.01-2.767-.055-3.746A5.173,5.173,0,0,0,21.7,9.057Zm-7.23,10.229a4.761,4.761,0,1,1,4.761-4.762A4.762,4.762,0,0,1,14.469,19.286Zm4.95-8.6a1.113,1.113,0,1,1,1.112-1.114A1.112,1.112,0,0,1,19.419,10.687Z" transform="translate(557.604 4106.548)"/>
  </g>
</svg>
