<svg xmlns="http://www.w3.org/2000/svg" width="34.286" height="24" viewBox="0 0 34.286 24">
  <g id="menu-left" transform="translate(-3 -7.5)">
    <path id="Trazado_7798" data-name="Trazado 7798" d="M3,9.205A1.705,1.705,0,0,1,4.705,7.5H18.437a1.706,1.706,0,1,1,0,3.411H4.705A1.705,1.705,0,0,1,3,9.205Z" transform="translate(0 0)" fill="#212121"/>
    <path id="Trazado_7799" data-name="Trazado 7799" d="M3,18.213a1.705,1.705,0,0,1,1.705-1.705H35.579a1.706,1.706,0,0,1,0,3.411H4.705A1.705,1.705,0,0,1,3,18.213Z" transform="translate(0 1.287)" fill="#212121"/>
    <path id="Trazado_7800" data-name="Trazado 7800" d="M4.705,25.515a1.706,1.706,0,1,0,0,3.411H25.294a1.706,1.706,0,0,0,0-3.411Z" transform="translate(0 2.574)" fill="#212121"/>
  </g>
</svg>
