<svg id="plus" xmlns="http://www.w3.org/2000/svg" width="20.25" height="20.25" viewBox="0 0 20.25 20.25">
  <path id="Trazado_258" data-name="Trazado 258" d="M18,7.875A1.125,1.125,0,0,1,19.125,9v9A1.125,1.125,0,0,1,18,19.125H9a1.125,1.125,0,0,1,0-2.25h7.875V9A1.125,1.125,0,0,1,18,7.875Z" transform="translate(-7.875 -7.875)" fill="#fff" fill-rule="evenodd"/>
  <path id="Trazado_259" data-name="Trazado 259" d="M16.875,18A1.125,1.125,0,0,1,18,16.875h9a1.125,1.125,0,0,1,0,2.25H19.125V27a1.125,1.125,0,0,1-2.25,0Z" transform="translate(-7.875 -7.875)" fill="#fff" fill-rule="evenodd"/>
</svg>
