<svg xmlns="http://www.w3.org/2000/svg" width="24" height="24" viewBox="0 0 24 24">
  <g id="Grupo_3334" data-name="Grupo 3334" transform="translate(-1208.793 -4.284)">
    <rect id="Rectángulo_2471" data-name="Rectángulo 2471" width="24" height="24" transform="translate(1208.793 4.284)" fill="#fff" opacity="0"/>
    <g id="Grupo_3333" data-name="Grupo 3333" transform="translate(1214.149 6.303)">
      <g id="Grupo_3326" data-name="Grupo 3326">
        <path id="Trazado_7796" data-name="Trazado 7796" d="M640.286,98.171s-6.645-5.967-6.645-13c0-3.491,1.732-6.962,6.645-6.962s6.644,3.47,6.644,6.962C646.93,92.2,640.286,98.171,640.286,98.171Z" transform="translate(-633.641 -78.21)" fill="none" stroke="#f5f5f5" stroke-linecap="round" stroke-linejoin="round" stroke-width="1"/>
      </g>
      <path id="Trazado_7797" data-name="Trazado 7797" d="M636.7,86.757a1.516,1.516,0,0,0,1.466,1.466,2.664,2.664,0,0,1,.462.123,2.569,2.569,0,0,1,.392.229,1.545,1.545,0,0,0,2.118,0,2.558,2.558,0,0,1,.391-.229,2.659,2.659,0,0,1,.462-.123,1.516,1.516,0,0,0,1.466-1.466,2.8,2.8,0,0,1,.125-.462,2.547,2.547,0,0,1,.229-.392,1.544,1.544,0,0,0,0-2.117,2.55,2.55,0,0,1-.229-.392,2.828,2.828,0,0,1-.125-.462,1.516,1.516,0,0,0-1.466-1.466,2.759,2.759,0,0,1-.462-.123,2.537,2.537,0,0,1-.392-.23,1.547,1.547,0,0,0-2.117,0,2.491,2.491,0,0,1-.392.23,2.764,2.764,0,0,1-.462.123,1.516,1.516,0,0,0-1.466,1.466,2.665,2.665,0,0,1-.123.462,2.548,2.548,0,0,1-.229.392,1.544,1.544,0,0,0,0,2.117,2.546,2.546,0,0,1,.229.392A2.664,2.664,0,0,1,636.7,86.757Zm.37-2.537a2.994,2.994,0,0,0,.288-.5,3.187,3.187,0,0,0,.16-.577.8.8,0,0,1,.858-.858,3.267,3.267,0,0,0,.577-.16,3.028,3.028,0,0,0,.5-.289.825.825,0,0,1,1.247,0,2.969,2.969,0,0,0,.5.289,3.255,3.255,0,0,0,.575.16.8.8,0,0,1,.858.857,3.328,3.328,0,0,0,.16.578,3.17,3.17,0,0,0,.289.5.823.823,0,0,1,0,1.247,3.026,3.026,0,0,0-.288.5,3.252,3.252,0,0,0-.161.577.8.8,0,0,1-.858.858,3.165,3.165,0,0,0-.576.16,2.986,2.986,0,0,0-.5.288,1.315,1.315,0,0,1-.624.286,1.3,1.3,0,0,1-.623-.286,3.019,3.019,0,0,0-.5-.288,3.174,3.174,0,0,0-.577-.16,1.324,1.324,0,0,1-.626-.232,1.338,1.338,0,0,1-.231-.626,3.187,3.187,0,0,0-.16-.577,2.992,2.992,0,0,0-.288-.5.825.825,0,0,1,0-1.248Z" transform="translate(-633.407 -77.956)" fill="#f5f5f5"/>
    </g>
  </g>
</svg>
