<svg id="Componente_68_6" data-name="Componente 68 – 6" xmlns="http://www.w3.org/2000/svg" width="24" height="24" viewBox="0 0 24 24">
  <rect id="Rectángulo_2458" data-name="Rectángulo 2458" width="24" height="24" fill="#0043ba" opacity="0"/>
  <path id="person" d="M13,13A5.5,5.5,0,1,0,7.5,7.5,5.5,5.5,0,0,0,13,13Zm3.667-5.5A3.667,3.667,0,1,1,13,3.833,3.667,3.667,0,0,1,16.667,7.5ZM24,22.167A1.8,1.8,0,0,1,22.167,24H3.833A1.8,1.8,0,0,1,2,22.167c0-1.833,1.833-7.333,11-7.333S24,20.333,24,22.167Zm-1.833-.007a4.9,4.9,0,0,0-1.525-3.051c-1.2-1.2-3.445-2.442-7.641-2.442s-6.446,1.247-7.641,2.442a4.909,4.909,0,0,0-1.525,3.051Z" transform="translate(-1 -1)" fill="#0043ba"/>
</svg>
