<svg xmlns="http://www.w3.org/2000/svg" width="23.454" height="23.455" viewBox="0 0 23.454 23.455">
  <path id="Unión_3" data-name="Unión 3" d="M15.917,23.455A2.514,2.514,0,0,1,13.4,20.941V15.916A2.513,2.513,0,0,1,15.917,13.4h5.027a2.513,2.513,0,0,1,2.513,2.513v5.026a2.514,2.514,0,0,1-2.513,2.514Zm-13.4,0A2.514,2.514,0,0,1,0,20.941V15.916A2.513,2.513,0,0,1,2.515,13.4H7.54a2.513,2.513,0,0,1,2.513,2.513v5.026A2.514,2.514,0,0,1,7.54,23.455Zm13.4-13.4A2.513,2.513,0,0,1,13.4,7.539V2.513A2.513,2.513,0,0,1,15.917,0h5.027a2.513,2.513,0,0,1,2.513,2.513V7.539a2.513,2.513,0,0,1-2.513,2.513Zm-13.4,0A2.513,2.513,0,0,1,0,7.539V2.513A2.513,2.513,0,0,1,2.515,0H7.54a2.513,2.513,0,0,1,2.513,2.513V7.539A2.513,2.513,0,0,1,7.54,10.052Z" transform="translate(-0.002)"/>
</svg>
