<svg xmlns="http://www.w3.org/2000/svg" xmlns:xlink="http://www.w3.org/1999/xlink" width="50.262" height="23.454" viewBox="0 0 50.262 23.454">
  <defs>
    <clipPath id="clip-path">
      <rect width="50.262" height="23.454" fill="none"/>
    </clipPath>
    <clipPath id="clip-path-2">
      <rect width="23.454" height="23.454" fill="none"/>
    </clipPath>
  </defs>
  <g id="Cuadrícula_de_repetición_10" data-name="Cuadrícula de repetición 10" clip-path="url(#clip-path)">
    <g transform="translate(-1236.739 -342)">
      <g id="grid" transform="translate(1263.546 342)" clip-path="url(#clip-path-2)">
        <g id="grid-2" data-name="grid">
          <path id="Trazado_6635" data-name="Trazado 6635" d="M2.25,4.763A2.513,2.513,0,0,1,4.763,2.25H9.789A2.513,2.513,0,0,1,12.3,4.763V9.789A2.513,2.513,0,0,1,9.789,12.3H4.763A2.513,2.513,0,0,1,2.25,9.789Zm2.513-.838a.838.838,0,0,0-.838.838V9.789a.838.838,0,0,0,.838.838H9.789a.838.838,0,0,0,.838-.838V4.763a.838.838,0,0,0-.838-.838Zm10.89.838A2.513,2.513,0,0,1,18.165,2.25h5.026A2.513,2.513,0,0,1,25.7,4.763V9.789A2.513,2.513,0,0,1,23.191,12.3H18.165a2.513,2.513,0,0,1-2.513-2.513Zm2.513-.838a.838.838,0,0,0-.838.838V9.789a.838.838,0,0,0,.838.838h5.026a.838.838,0,0,0,.838-.838V4.763a.838.838,0,0,0-.838-.838ZM2.25,18.165a2.513,2.513,0,0,1,2.513-2.513H9.789A2.513,2.513,0,0,1,12.3,18.165v5.026A2.513,2.513,0,0,1,9.789,25.7H4.763A2.513,2.513,0,0,1,2.25,23.191Zm2.513-.838a.838.838,0,0,0-.838.838v5.026a.838.838,0,0,0,.838.838H9.789a.838.838,0,0,0,.838-.838V18.165a.838.838,0,0,0-.838-.838Zm10.89.838a2.513,2.513,0,0,1,2.513-2.513h5.026A2.513,2.513,0,0,1,25.7,18.165v5.026A2.513,2.513,0,0,1,23.191,25.7H18.165a2.513,2.513,0,0,1-2.513-2.513Zm2.513-.838a.838.838,0,0,0-.838.838v5.026a.838.838,0,0,0,.838.838h5.026a.838.838,0,0,0,.838-.838V18.165a.838.838,0,0,0-.838-.838Z" transform="translate(-2.25 -2.25)" fill="#a5a5a5" fill-rule="evenodd"/>
        </g>
      </g>
      <g id="grid-3" data-name="grid" transform="translate(1236.739 342)" clip-path="url(#clip-path-2)">
        <g id="grid-4" data-name="grid">
          <path id="Trazado_6635-2" data-name="Trazado 6635" d="M2.25,4.763A2.513,2.513,0,0,1,4.763,2.25H9.789A2.513,2.513,0,0,1,12.3,4.763V9.789A2.513,2.513,0,0,1,9.789,12.3H4.763A2.513,2.513,0,0,1,2.25,9.789Zm2.513-.838a.838.838,0,0,0-.838.838V9.789a.838.838,0,0,0,.838.838H9.789a.838.838,0,0,0,.838-.838V4.763a.838.838,0,0,0-.838-.838Zm10.89.838A2.513,2.513,0,0,1,18.165,2.25h5.026A2.513,2.513,0,0,1,25.7,4.763V9.789A2.513,2.513,0,0,1,23.191,12.3H18.165a2.513,2.513,0,0,1-2.513-2.513Zm2.513-.838a.838.838,0,0,0-.838.838V9.789a.838.838,0,0,0,.838.838h5.026a.838.838,0,0,0,.838-.838V4.763a.838.838,0,0,0-.838-.838ZM2.25,18.165a2.513,2.513,0,0,1,2.513-2.513H9.789A2.513,2.513,0,0,1,12.3,18.165v5.026A2.513,2.513,0,0,1,9.789,25.7H4.763A2.513,2.513,0,0,1,2.25,23.191Zm2.513-.838a.838.838,0,0,0-.838.838v5.026a.838.838,0,0,0,.838.838H9.789a.838.838,0,0,0,.838-.838V18.165a.838.838,0,0,0-.838-.838Zm10.89.838a2.513,2.513,0,0,1,2.513-2.513h5.026A2.513,2.513,0,0,1,25.7,18.165v5.026A2.513,2.513,0,0,1,23.191,25.7H18.165a2.513,2.513,0,0,1-2.513-2.513Zm2.513-.838a.838.838,0,0,0-.838.838v5.026a.838.838,0,0,0,.838.838h5.026a.838.838,0,0,0,.838-.838V18.165a.838.838,0,0,0-.838-.838Z" transform="translate(-2.25 -2.25)" fill="#a5a5a5" fill-rule="evenodd"/>
        </g>
      </g>
    </g>
  </g>
</svg>
