<svg xmlns="http://www.w3.org/2000/svg" width="20" height="20" viewBox="0 0 20 20">
  <g id="Grupo_3510" data-name="Grupo 3510" transform="translate(-1089 -952)">
    <circle id="Elipse_668" data-name="Elipse 668" cx="10" cy="10" r="10" transform="translate(1089 952)"/>
    <path id="whatsapp-brands" d="M11.053,33.889A6.444,6.444,0,0,0,.914,41.663L0,45l3.415-.9a6.422,6.422,0,0,0,3.079.783h0a6.4,6.4,0,0,0,4.556-11ZM6.5,43.8a5.345,5.345,0,0,1-2.728-.746l-.194-.116-2.025.531.54-1.976-.128-.2a5.365,5.365,0,1,1,9.95-2.847A5.414,5.414,0,0,1,6.5,43.8Zm2.937-4.01c-.16-.081-.952-.47-1.1-.522s-.255-.081-.363.081-.415.522-.511.633-.189.122-.348.041a4.382,4.382,0,0,1-2.191-1.915c-.165-.284.165-.264.473-.879a.3.3,0,0,0-.015-.281c-.041-.081-.363-.873-.5-1.2s-.264-.27-.363-.276-.2-.006-.308-.006a.6.6,0,0,0-.429.2,1.809,1.809,0,0,0-.563,1.344,3.153,3.153,0,0,0,.656,1.666,7.193,7.193,0,0,0,2.751,2.432,3.15,3.15,0,0,0,1.933.4,1.649,1.649,0,0,0,1.085-.766,1.346,1.346,0,0,0,.093-.766C9.7,39.91,9.593,39.87,9.434,39.791Z" transform="translate(1092.659 923.5)" fill="#fff"/>
  </g>
</svg>
