<svg xmlns="http://www.w3.org/2000/svg" width="36" height="36" viewBox="0 0 36 36">
  <g id="Grupo_3364" data-name="Grupo 3364" transform="translate(-630.541 -4103)">
    <path id="Trazado_7777" data-name="Trazado 7777" d="M10.63,16.231c1.9-1.037,3.788-2.065,5.691-3.105L10.63,10.148Z" transform="translate(635.656 4107.739)"/>
    <path id="Trazado_7778" data-name="Trazado 7778" d="M18,.056a18,18,0,1,0,18,18A18,18,0,0,0,18,.056ZM27.876,19.25c-.023.929-.111,1.856-.2,2.781a4.211,4.211,0,0,1-.384,1.347,2.351,2.351,0,0,1-1.91,1.394,18.757,18.757,0,0,1-1.882.144c-1.833.06-3.67.1-5.349.149-1.994-.05-3.828-.088-5.663-.15-.614-.021-1.229-.084-1.836-.165a2.421,2.421,0,0,1-2.14-1.84,8.711,8.711,0,0,1-.288-1.639,36.888,36.888,0,0,1-.106-4.515c.027-.972.125-1.943.229-2.909a4.106,4.106,0,0,1,.3-1.042,2.38,2.38,0,0,1,2.126-1.543c1.687-.17,3.384-.206,5.079-.212q3.168-.009,6.334.043c.934.014,1.868.084,2.8.138a2.72,2.72,0,0,1,1.908.831,3.1,3.1,0,0,1,.64,1.287,8.8,8.8,0,0,1,.26,1.779A36.368,36.368,0,0,1,27.876,19.25Z" transform="translate(630.541 4102.944)"/>
  </g>
</svg>
